<svg xmlns="http://www.w3.org/2000/svg" viewBox="0 0 295 48"><g fill="none" fill-rule="evenodd"><path fill="currentColor" d="M15.4768016,7.88095238 L18,10.4079329 L5.04586275,23.3804175 L18,36.3539719 L15.4768016,38.8809524 L0,23.3809524 L15.4768016,7.88095238 Z M55.5231984,7.88095238 L71,23.3809524 L55.5231984,38.8809524 L53,36.3539719 L65.9541373,23.3804175 L53,10.4079329 L55.5231984,7.88095238 Z M140.082122,14.0042815 L140.253048,14.171571 L137.424621,16.9850329 C133.324116,12.9062236 126.675884,12.9062236 122.575379,16.9850329 C118.474874,21.0638421 118.474874,27.6768986 122.575379,31.7557079 C126.634879,35.793729 133.191406,35.8341093 137.300847,31.8768485 L137.424621,31.7557079 L140.253048,34.5691698 C134.590446,40.2018111 125.409554,40.2018111 119.746952,34.5691698 C114.084349,28.9365284 114.084349,19.8042123 119.746952,14.171571 C125.352928,8.59525602 134.40718,8.53949287 140.082122,14.0042815 Z M218.5,9.94708995 C226.508129,9.94708995 233,16.4046126 233,24.3703704 C233,32.3361282 226.508129,38.7936508 218.5,38.7936508 C210.491871,38.7936508 204,32.3361282 204,24.3703704 C204,16.4046126 210.491871,9.94708995 218.5,9.94708995 Z M155,9.94708995 C163.008129,9.94708995 169.5,16.4046126 169.5,24.3703704 C169.5,32.3361282 163.008129,38.7936508 155,38.7936508 C146.991871,38.7936508 140.5,32.3361282 140.5,24.3703704 C140.5,16.4046126 146.991871,9.94708995 155,9.94708995 Z M263.75,0.373015873 L263.749,24.292 L263.75,24.3703704 C263.75,24.3903983 263.749959,24.4104166 263.749877,24.4304253 L263.75,38.5449735 L259.75,38.5449735 L259.74995,34.3175509 C257.108884,37.0751232 253.381201,38.7936508 249.25,38.7936508 C241.241871,38.7936508 234.75,32.3361282 234.75,24.3703704 C234.75,16.4046126 241.241871,9.94708995 249.25,9.94708995 C253.380807,9.94708995 257.108172,11.6652895 259.749194,14.4224002 L259.75,0.373015873 L263.75,0.373015873 Z M280.5,9.94708995 C288.428048,9.94708995 294.870011,16.2761079 294.998057,24.1318551 L295,24.3703704 L295,26.3597884 L270.1905,26.3597884 L270.196858,26.3935862 C271.13329,31.1390685 275.30066,34.7323626 280.326363,34.8134156 L280.5,34.8148148 C284.354223,34.8148148 287.567951,33.3691016 289.902311,30.2298597 L289.988366,30.1128166 L293.229672,32.4443299 C290.096839,36.7536769 285.62843,38.7936508 280.5,38.7936508 C272.491871,38.7936508 266,32.3361282 266,24.3703704 C266,16.4046126 272.491871,9.94708995 280.5,9.94708995 Z M99.25,9.94708995 C107.178048,9.94708995 113.620011,16.2761079 113.748057,24.1318551 L113.75,24.3703704 L113.75,26.3597884 L88.9405,26.3597884 L88.9468576,26.3935862 C89.8832898,31.1390685 94.0506604,34.7323626 99.0763633,34.8134156 L99.25,34.8148148 C103.104223,34.8148148 106.317951,33.3691016 108.652311,30.2298597 L108.738366,30.1128166 L111.979672,32.4443299 C108.846839,36.7536769 104.37843,38.7936508 99.25,38.7936508 C91.2418711,38.7936508 84.75,32.3361282 84.75,24.3703704 C84.75,16.4046126 91.2418711,9.94708995 99.25,9.94708995 Z M204.058716,5.45622316 L204.288582,5.68119862 L201.460155,8.49466053 C195.407029,2.47356113 185.592971,2.47356113 179.539845,8.49466053 C173.486718,14.5157599 173.486718,24.2778909 179.539845,30.2989903 C185.53244,36.2598787 195.211124,36.3194876 201.277441,30.4778169 L201.460155,30.2989903 L204.288582,33.1124522 C196.673359,40.6873837 184.326641,40.6873837 176.711418,33.1124522 C169.096194,25.5375207 169.096194,13.2561301 176.711418,5.68119862 C184.250489,-1.81798356 196.426897,-1.89297538 204.058716,5.45622316 Z M218.5,13.9259259 C212.70101,13.9259259 208,18.602063 208,24.3703704 C208,30.1386778 212.70101,34.8148148 218.5,34.8148148 C224.29899,34.8148148 229,30.1386778 229,24.3703704 C229,18.602063 224.29899,13.9259259 218.5,13.9259259 Z M155,13.9259259 C149.20101,13.9259259 144.5,18.602063 144.5,24.3703704 C144.5,30.1386778 149.20101,34.8148148 155,34.8148148 C160.79899,34.8148148 165.5,30.1386778 165.5,24.3703704 C165.5,18.602063 160.79899,13.9259259 155,13.9259259 Z M249.25,13.9259259 C243.45101,13.9259259 238.75,18.602063 238.75,24.3703704 C238.75,30.1386778 243.45101,34.8148148 249.25,34.8148148 C254.953924,34.8148148 259.595573,30.290737 259.746226,24.6531613 L259.749,24.43 L259.749762,24.2992536 C259.711945,18.6580918 255.17816,14.0789088 249.534295,13.9296802 L249.25,13.9259259 Z M280.5,13.9259259 C275.44792,13.9259259 271.229195,17.4750646 270.226263,22.2035098 L270.19025,22.3809524 L290.8095,22.3809524 L290.803142,22.3471546 C289.86671,17.6016722 285.69934,14.0083782 280.673637,13.9273252 L280.5,13.9259259 Z M99.25,13.9259259 C94.19792,13.9259259 89.9791951,17.4750646 88.9762627,22.2035098 L88.94025,22.3809524 L109.5595,22.3809524 L109.553142,22.3471546 C108.61671,17.6016722 104.44934,14.0083782 99.4236367,13.9273252 L99.25,13.9259259 Z"/><path fill="#57C18B" d="M26.58429,37.3504353 C23.1347448,36.3075042 22.8333333,28.5188829 27.6666667,21.8632112 C32.5,15.2075394 37.9375,10.9721119 42.1749376,1.68162551 C42.8605233,0.178494474 43.3165922,1.15008315 43.5361478,1.71117397 C49.3252241,16.5055929 49.4795843,43.0735997 31.1832495,39.1278128 C26.256027,43.8185201 22.2643882,46.7362333 19.2083333,47.8809524 C19.2083333,47.8809524 18,45.4605929 18,45.4605929 C25.8541667,42.4352875 38.5416667,29.123944 41.5625,13.3923562 C41.4927802,13.3963113 41.4459492,13.3611713 41.386579,13.5901465 C38.18409,25.9413002 28.7294678,35.4106004 26.58429,37.3504353 Z"/></g></svg>
