<svg enable-background="new 0 0 378.5 85.4" viewBox="0 0 378.5 85.4" xmlns="http://www.w3.org/2000/svg" xmlns:xlink="http://www.w3.org/1999/xlink"><linearGradient id="a"><stop offset="0" stop-color="#44277f"/><stop offset=".4966" stop-color="#b51f80"/><stop offset="1" stop-color="#f08eb8"/></linearGradient><linearGradient id="b" gradientTransform="matrix(1 0 0 -1 0 85)" gradientUnits="userSpaceOnUse" x1="-17.277" x2="71.8986" xlink:href="#a" y1="16.1518" y2="105.3274"/><linearGradient id="c" gradientTransform="matrix(1 0 0 -1 0 85)" gradientUnits="userSpaceOnUse" x1="17.2362" x2="106.4119" xlink:href="#a" y1="-20.5049" y2="68.6707"/><g fill="#fff"><path d="m323.3 26.5c-8.9 0-16.2 7.3-16.2 16.2s7.3 16.2 16.2 16.2 16.2-7.3 16.2-16.2-7.3-16.2-16.2-16.2zm0 26.8c-5.9 0-10.6-4.8-10.6-10.6s4.8-10.6 10.6-10.6c5.9 0 10.6 4.8 10.6 10.6s-4.8 10.6-10.6 10.6z"/><path d="m141.7 42.7c0-5.2-2.1-9.7-6.1-12.6-3.1-2.2-6.2-3-11.5-3h-8.5v31.2h8.4c5.5 0 8.2-.7 11.3-3 4.3-2.9 6.4-7.3 6.4-12.6zm-9.5 8.2c-2 1.5-4.1 2.1-7.7 2.1h-3.1v-20.5h3.1c3.5 0 5.8.6 7.7 2 2.4 1.8 3.9 4.9 3.9 8.2 0 3.4-1.5 6.3-3.9 8.2z"/><path d="m219.6 27.1h5.7v31.2h-5.7z"/><path d="m264.7 42.7c0-5.2-2.1-9.7-6.1-12.6-3.1-2.2-6.2-3-11.5-3h-8.5v31.2h8.4c5.5 0 8.2-.7 11.4-3 4.1-2.9 6.3-7.3 6.3-12.6zm-9.6 8.2c-2 1.5-4.1 2.1-7.7 2.1h-3.1v-20.5h3.1c3.5 0 5.8.6 7.7 2 2.4 1.8 3.9 4.9 3.9 8.2 0 3.4-1.4 6.3-3.9 8.2z"/><path d="m172.2 58.3h6.2l-14.6-31.6-14.6 31.6h6.2l1.9-4.1h12.9zm-12.1-9.8 3.8-8.3 3.8 8.3z"/><path d="m187.1 27.1h-6.3l14.6 31.6 14.6-31.6h-6.2l-8.4 18.1z"/><path d="m297.1 48.7c-.1-4.4-2.7-7.3-8.4-9.4-4.4-1.6-4.4-1.6-5.3-2.2s-1.4-1.2-1.4-2.1c0-.7.2-1.4.8-2 .8-.8 2-1.2 3.4-1.2 2.1 0 3.1.6 4.6 2.8l.3.4 4.9-2.8-.3-.5c-2.4-3.7-5.4-5.3-9.5-5.3-3.2 0-6.1 1.1-8 3.1-1.5 1.5-2.2 3.4-2.2 5.5.1 3.6 2.5 6.3 7.4 8.1 4.5 1.7 4.5 1.7 5.6 2.3 1.4.9 2.1 2 2.1 3.5 0 1.2-.4 2.2-1.1 3.1-.9.9-2.1 1.4-3.5 1.4-1.9 0-3.6-.8-4.4-2.1-.5-.7-.6-1.3-1-3.1l-.1-.6-6.1 1.3.1.5c.4 2.4 1 3.6 2.1 5.1 2.2 2.7 5.5 4.2 9.2 4.2 3.3 0 6.2-1.1 8.2-3.2 1.7-1.6 2.6-4.1 2.6-6.8z"/><path d="m372.8 46-21.9-19.4v31.6h5.6v-19l22 19.5v-31.7h-5.7z"/></g><path d="m0 0v41.9c11.1 0 20 9 20 20s-9 20-20 20v3.5c23.6 0 42.7-19.1 42.7-42.7s-19.1-42.7-42.7-42.7z" fill="url(#b)"/><path d="m88.9 0v41.9c-11.1 0-20 9-20 20s9 20 20 20v3.5c-23.6 0-42.7-19.1-42.7-42.7s19.1-42.7 42.7-42.7z" fill="url(#c)"/></svg>