<svg xmlns="http://www.w3.org/2000/svg" viewBox="0 0 283.46 283.46"><defs><linearGradient id="a" x1="42.7" x2="224.76" y1="233.25" y2="51.19" gradientTransform="rotate(2.11 134.067 141.754)" gradientUnits="userSpaceOnUse"><stop offset="0" stop-color="#eb690a"/><stop offset="1" stop-color="#e2001a"/></linearGradient></defs><circle cx="141.73" cy="141.73" r="141.73" fill="#fff" transform="rotate(-75.01 141.729 141.734)"/><circle cx="134.22" cy="141.73" r="130.46" style="fill:url(#a)" transform="rotate(-2.11 134.278 141.806)"/><path fill="#fff" d="M54.83 146.39a17 17 0 0 1-12.21-5.17 17.85 17.85 0 0 1 0-24.84 17.45 17.45 0 0 1 24.62-.2c3 2.89 4.34 6.95 6 11.55l6.32 17.74h-5l-3.76-9.65c-3.2 6.82-9.02 10.57-15.97 10.57Zm0-30.36a12.81 12.81 0 1 0 12.48 12.77A12.63 12.63 0 0 0 54.83 116Zm55.4 15.68c0 8.94-6 14.68-13.76 14.68s-13.83-5.81-13.83-14.68v-19.58h4.75V132c0 5.89 4 9.65 9 9.65s9.08-3.76 9.08-9.65v-19.87h4.75Zm8.44-36.82h4.76v21.49a17.38 17.38 0 0 1 12.41-5.1 16.74 16.74 0 0 1 12.13 5.1 17.82 17.82 0 0 1 0 24.84 16.92 16.92 0 0 1-12.13 5.17c-9.86 0-17.24-7.45-17.24-19.37 0-.7 0-1.48.07-2.26Zm17.17 46.75a12.81 12.81 0 1 0-12.55-12.77 12.62 12.62 0 0 0 12.55 12.77Zm38.51 4.75a17 17 0 0 1-12.19-5.17 17.82 17.82 0 0 1 0-24.84 17.44 17.44 0 0 1 24.61-.2c3 2.89 4.33 6.95 6 11.55l6.32 17.74h-5l-3.76-9.65c-3.2 6.82-9.02 10.57-15.98 10.57Zm0-30.36a12.81 12.81 0 1 0 12.49 12.77 12.62 12.62 0 0 0-12.49-12.8Z"/><path fill="#fff" d="M213.31 162.57c-6.89 0-11.71-2.2-16-7.59l3.76-3c3.55 4.54 6.81 6.31 11.92 6.31 8.87 0 13.55-5.11 13.55-14.89v-1.07c-3.12 2.7-6.17 4.12-9.37 4.12a15.12 15.12 0 0 1-9.5-3.69c-4.18-3.9-4.47-7.81-4.47-13.06v-17.57h4.47v17.52c0 7.95 3.76 12.13 9.71 12.13a9.27 9.27 0 0 0 7.42-3.78c1.56-2 1.7-4.61 1.7-8.23v-17.64h4.89v28.8c0 14.41-6.17 21.64-18.08 21.64ZM62.38 128.88a7.55 7.55 0 1 1-7.55-7.55 7.54 7.54 0 0 1 7.55 7.55ZM42 184.26a5 5 0 0 1-3.59-1.5 5.18 5.18 0 0 1 0-7.23 5.09 5.09 0 0 1 7.16-.06 8.42 8.42 0 0 1 1.73 3.36l1.84 5.17h-3l-.58-1.66a4 4 0 0 1-3.56 1.92Zm.06-7.62a2.47 2.47 0 0 0-2.39 2.53 2.43 2.43 0 0 0 2.39 2.47 2.38 2.38 0 0 0 2.35-2.47 2.41 2.41 0 0 0-2.35-2.53Zm8.19 2.26c0-3.24 1.53-4.87 4.52-4.87a4.46 4.46 0 0 1 3.22 1.3c.95 1 1.08 2.06 1.08 3.57v5.1h-2.63v-5.1c0-1.45-.57-2.14-1.77-2.14s-1.76.68-1.76 2.14v5.1h-2.66Zm11.68.41v-2.4h-1v-2.66h1V172h2.79v2.24h1.76v2.66h-1.76v2.1c0 1.36.59 2.14 1.76 2.29v2.79a4.43 4.43 0 0 1-4.55-4.77Zm8.38-9.18a1.55 1.55 0 0 1 1.59 1.58 1.58 1.58 0 0 1-1.59 1.62 1.6 1.6 0 0 1-1.61-1.62 1.58 1.58 0 0 1 1.61-1.58ZM69 174h2.58v10H69Zm9.75 10.26a4.91 4.91 0 0 1-3.55-1.48 5.21 5.21 0 0 1-1.46-3.64 5.16 5.16 0 0 1 1.46-3.61 5 5 0 0 1 3.55-1.53 4.88 4.88 0 0 1 3.82 1.81l-1.84 1.87a2.23 2.23 0 0 0-2-1.05 2.43 2.43 0 0 0-2.38 2.53 2.39 2.39 0 0 0 2.38 2.42 2.2 2.2 0 0 0 1.78-.86l1.93 1.79a4.92 4.92 0 0 1-3.69 1.75Zm6.93-14.13a1.55 1.55 0 0 1 1.59 1.58 1.58 1.58 0 0 1-1.59 1.62 1.61 1.61 0 0 1-1.61-1.62 1.58 1.58 0 0 1 1.61-1.58Zm-1.3 3.9H87v10h-2.62Zm5.1 6.39a7.91 7.91 0 0 1 .7-4.16 4.75 4.75 0 0 1 4.29-2.26 5 5 0 0 1 3.53 1.53 5.1 5.1 0 0 1 1.44 3.61 5.19 5.19 0 0 1-1.44 3.64 4.67 4.67 0 0 1-3.37 1.44 3.41 3.41 0 0 1-2.56-1v5.34h-2.59v-8.16Zm4.91 1.26a2.53 2.53 0 0 0 .06-5 2.34 2.34 0 0 0-2.35 2.53 2.32 2.32 0 0 0 2.29 2.47Zm11.43 2.58a4.91 4.91 0 0 1-3.55-1.48 5.21 5.21 0 0 1-1.46-3.64 5.16 5.16 0 0 1 1.46-3.61 5 5 0 0 1 3.55-1.49c2.83 0 5 2.19 5 5.55v.16h-7.29a2.41 2.41 0 0 0 2.4 1.91 2.79 2.79 0 0 0 1.84-.87l1.67 1.89a5.07 5.07 0 0 1-3.62 1.58Zm0-7.9a2 2 0 0 0-2.1 1.57h4.2a2 2 0 0 0-2.1-1.57Zm6.81 3.19c0-3.54 1.33-5.3 4.48-5.52v2.8c-1.6.06-1.76 1-1.76 3.08V184h-2.72Zm14.79-10.27H130V184h-2.58Zm6.78.23v5.63h-1.95v-5.63Zm3.53.62a1.55 1.55 0 0 1 1.59 1.58 1.58 1.58 0 0 1-1.59 1.62 1.61 1.61 0 0 1-1.62-1.62 1.58 1.58 0 0 1 1.62-1.58Zm-1.3 3.9H139v10h-2.57Zm5.3 4.87c0-3.24 1.53-4.87 4.52-4.87a4.47 4.47 0 0 1 3.22 1.3c.95 1 1.07 2.06 1.07 3.57v5.1h-2.62v-5.1c0-1.45-.58-2.14-1.78-2.14s-1.75.68-1.75 2.14v5.1h-2.66Zm11.39 0c0-3.24 1.52-4.87 4.52-4.87a4.46 4.46 0 0 1 3.22 1.3c.95 1 1.07 2.06 1.07 3.57v5.1h-2.63v-5.1c0-1.45-.56-2.14-1.77-2.14s-1.75.68-1.75 2.14v5.1h-2.66Zm12.3-3.37A5 5 0 0 1 169 174a5 5 0 0 1 5 5.1 5.15 5.15 0 0 1-1.46 3.64 5 5 0 0 1-3.59 1.48 4.94 4.94 0 0 1-3.57-1.48 5.17 5.17 0 0 1-1.51-3.64 5.12 5.12 0 0 1 1.55-3.57Zm3.54 6.11a2.44 2.44 0 0 0 2.4-2.47 2.39 2.39 0 1 0-4.77 0 2.43 2.43 0 0 0 2.41 2.47Zm6.2-7.34H178l1.59 5.25 1.65-5.25h3l-4 9.69h-1.57Zm15.08 9.96a5 5 0 0 1-3.59-1.5 5.18 5.18 0 0 1 0-7.23 5.09 5.09 0 0 1 7.16-.06 8.3 8.3 0 0 1 1.73 3.36l1.84 5.16h-3l-.58-1.66a4 4 0 0 1-3.56 1.93Zm.07-7.62a2.47 2.47 0 0 0-2.4 2.53 2.43 2.43 0 0 0 2.4 2.47 2.38 2.38 0 0 0 2.35-2.47 2.41 2.41 0 0 0-2.35-2.53Zm8.47 2.67v-2.4h-1.05v-2.66h1.05V172h2.79v2.24h1.75v2.66h-1.75v2.1c0 1.36.6 2.14 1.75 2.29v2.79a4.43 4.43 0 0 1-4.54-4.77Zm8.39-9.18a1.55 1.55 0 0 1 1.58 1.58 1.57 1.57 0 0 1-1.58 1.62 1.61 1.61 0 0 1-1.62-1.62 1.59 1.59 0 0 1 1.62-1.58Zm-1.31 3.9h2.58v10h-2.58Zm6.21 1.5a5 5 0 0 1 3.57-1.49 5.06 5.06 0 0 1 3.6 1.49 5.23 5.23 0 0 1 0 7.25 5 5 0 0 1-3.6 1.48 5 5 0 0 1-3.57-1.48 5.21 5.21 0 0 1-1.5-3.64 5.15 5.15 0 0 1 1.5-3.61Zm3.56 6.11a2.42 2.42 0 0 0 2.38-2.47 2.38 2.38 0 1 0-4.76 0 2.43 2.43 0 0 0 2.38 2.47Zm7.05-2.74c0-3.24 1.53-4.87 4.52-4.87a4.47 4.47 0 0 1 3.22 1.3c1 1 1.08 2.06 1.08 3.57v5.1h-2.63v-5.1c0-1.45-.58-2.14-1.78-2.14s-1.75.68-1.75 2.14v5.1h-2.66Z"/></svg>
