<svg xmlns="http://www.w3.org/2000/svg" xml:space="preserve" viewBox="0 0 170.27 80.76"><g fill="#003B7D"><path d="M88.646 31.33a6.161 6.161 0 0 0-2.195-4.078 7.79 7.79 0 0 0-3.84-1.391 46.871 46.871 0 0 0-5.572.047c-.16.119-.137.216-.018.387.119.172.26-.128.547.456.172.348.267.73.272 1.121l.102 9.268s.042 1.305-.271 1.596c-.314.292-.607.381-.605.556.004.277.385.249.385.249l5.65-.077a7.926 7.926 0 0 0 2.693-.896 5.801 5.801 0 0 0 2.224-2.234 8.274 8.274 0 0 0 .628-5.004zm-4.536 5.954a4.907 4.907 0 0 1-3.51.292c-.468-.256-.45-.529-.45-.529l-.107-9.17a3.761 3.761 0 0 1 1.529-.236 4.933 4.933 0 0 1 3.061.839 4.625 4.625 0 0 1 1.854 3.927c.054 3.083-1.081 4.292-2.377 4.877zm-32.868 3.5c-.111-.11-.207-.012-.57.056-.534.098-1.77-.625-2.174-.815-.405-.188-1.559-.857-1.559-.857a7.861 7.861 0 0 0 2.367-2.361 8.19 8.19 0 0 0 .992-3.947c.115-2.68-1.277-5.193-3.593-6.487a8.334 8.334 0 0 0-7.01.198c-2.123 1.27-3.388 3.618-3.294 6.116-.177 2.963 1.521 5.713 4.227 6.844a8.146 8.146 0 0 0 3.819.406s2.706 1.588 3.156 1.774a5.32 5.32 0 0 0 1.743.671c.742-.032 1.827-1.227 1.827-1.227s.187-.254.069-.371zm-7.561-2.647a4.532 4.532 0 0 1-4.113-2.044 6.434 6.434 0 0 1 .467-7.111 3.873 3.873 0 0 1 3.109-1.451c3.149 0 4.49 2.017 4.808 4.345.413 3.049-1.07 6.123-4.271 6.261zm-19.968 1.566h3.457a.19.19 0 0 0 .18-.245c-.031-.229-.457.014-.756-.694a3.7 3.7 0 0 1-.23-1l-.035-7.206 8.712 9.558s.27.158.361.061a.49.49 0 0 0 .095-.292l-.035-11.968a3.34 3.34 0 0 1 .218-1.097c.183-.349.576-.306.599-.524.021-.203-.106-.194-.106-.194L32.5 26.1s-.138.021-.145.21c-.012.268.443 0 .685.377.15.269.269.554.35.852l.094 7.744-8.819-9.739a.308.308 0 0 0-.263-.073c-.097.014-.167.219-.167.219l.106 12.348a1.819 1.819 0 0 1-.288.949c-.237.312-.468.324-.456.546a.162.162 0 0 0 .116.17zm26.688-13.618 3.672-.012a.125.125 0 0 1 .154.089c.002.011.004.021.004.032.009.227-.252.257-.516.525-.265.268-.313 1.4-.313 1.4l.072 7.089a3.18 3.18 0 0 0 .387 1.573 3.108 3.108 0 0 0 4.382.706c.266-.194.499-.432.691-.699a3.78 3.78 0 0 0 .383-1.664c.098-1.336-.072-7.587-.072-7.587s-.099-.837-.396-.964c-.381-.169-.488-.332-.419-.478a.207.207 0 0 1 .25-.131l3.53.01c.102.03.162.139.132.243l-.001.004c-.07.251-.372.152-.565.568a4.085 4.085 0 0 0-.25 1.109l-.013 7.357a4.696 4.696 0 0 1-.731 2.653 4.915 4.915 0 0 1-4.151 2.053 5.345 5.345 0 0 1-4.32-1.674 4.04 4.04 0 0 1-1.044-2.57l-.133-7.575a4.133 4.133 0 0 0-.272-1.285c-.173-.341-.589-.329-.627-.579a.163.163 0 0 1 .127-.192c.013 0 .026-.002.039-.001zm12.596-.114s-.29.097-.101.292c.19.196.538.177.657.688.12.512.173.937.173.937l.034 9.743a3.806 3.806 0 0 1-.248 1.23c-.191.338-.612.23-.574.478.041.235.331.261.331.261l7.677-.046c.077-.346.135-.697.171-1.05.134-.927.29-1.771-.018-1.731-.38.051-.162.341-.673.658a1.702 1.702 0 0 1-.994.289l-2.626.052a1.129 1.129 0 0 1-.628-.213c-.15-.131-.146-.686-.146-.686l-.02-3.551s2.09-.039 2.799.017c.44-.03.876.108 1.222.387.181.171.269.521.459.509.132-.011.188-.305.188-.305l-.021-3.229s-.028-.263-.222-.189c-.194.072-.352.404-.518.598a1.406 1.406 0 0 1-.721.338l-3.205.064s-.063-2.731-.045-3.575c.003-.155.252-.204.252-.204l2.858.005s.83-.02 1.032.165c.275.252.399.72.722.724.211.003.201-.337.201-.337l-.025-1.998s.02-.25-.113-.318a2.024 2.024 0 0 0-.596-.053l-7.282.05zm43.204 6.277.013 5.018c.019.416.112.825.276 1.206.302.609.646.448.744.644.099.196 0 .315-.217.365-.215.05-3.959.013-3.959.013s-.319-.009-.277-.28c.041-.25.369-.143.685-.621.233-.414.354-.885.35-1.364l-.049-11.239a2.646 2.646 0 0 0-.336-1.338c-.39-.545-.666-.288-.695-.647-.019-.242.396-.24.396-.24l8.146.021s.46-.031.529.075a.91.91 0 0 1 .07.413l.004 2.24a.207.207 0 0 1-.172.235.234.234 0 0 1-.07-.002c-.324-.047-.29-.642-.863-.853a4.845 4.845 0 0 0-1.334-.16l-3.264-.011v4.491l3.188.027a8.106 8.106 0 0 0 1.129-.283c.527-.194.558-.744.73-.779.322-.073.313.208.313.208l-.01 3.568s-.006.391-.238.34c-.217-.047-.295-.229-.538-.609-.217-.34-.951-.413-.951-.413l-3.6-.025zm6.734-5.644c-.227-.412-.66-.42-.648-.676.009-.204.3-.22.3-.22l5.785.024a4.396 4.396 0 0 1 2.903 1.535c.526.76.779 1.679.719 2.605a3.783 3.783 0 0 1-1.262 2.644 5.637 5.637 0 0 1-1.512.804.478.478 0 0 0 .063.22c.58.852 3.464 5.034 3.464 5.034l1.055.869c-.917.074-1.839.072-2.755-.006a2.546 2.546 0 0 1-1.11-1.003l-3.469-5.322s-.568-.729-.394-1.042c.113-.195 1.066.131 2.074-.209a2.088 2.088 0 0 0 1.527-2.038 2.188 2.188 0 0 0-1.43-2.221 5.884 5.884 0 0 0-2.739-.05.403.403 0 0 0-.108.375l.099 9.725c.024.385.155.754.379 1.068.334.39.463.265.459.495 0 .203-.269.209-.269.209l-3.457.002a.224.224 0 0 1-.188-.252l.001-.007c.024-.177.435-.183.631-.619.119-.289.179-.601.176-.914l-.07-9.894a2.613 2.613 0 0 0-.224-1.136zm47.616 12.489a9.322 9.322 0 0 1-3.78.68c-2.556.104-4.934-1.327-6.069-3.654a8.735 8.735 0 0 1-.338-6.452 6.571 6.571 0 0 1 4.021-4.066 9.72 9.72 0 0 1 4.682-.034c.31.113.632.182.959.203.254-.011.256-.219.554-.168.188.032.182.255.182.255l.01 2.119s-.027.294-.265.292c-.348-.002-.551-.576-1.631-.843a5.674 5.674 0 0 0-4.298.332 5.351 5.351 0 0 0-2.33 4.799 5.41 5.41 0 0 0 1.938 4.468 4.647 4.647 0 0 0 3.841.781 5.258 5.258 0 0 0 2.186-.905.525.525 0 0 1 .431-.278c.189.012.203.501.203.501l-.296 1.97z"/><path d="M88.943 25.85s-.289.096-.098.292c.19.197.537.176.655.688.119.511.175.936.175.936l.033 9.742c-.016.421-.1.838-.249 1.23-.19.338-.61.23-.573.478.041.234.332.26.332.26l7.676-.045c.077-.346.135-.697.172-1.05.133-.928.29-1.773-.02-1.731-.379.051-.16.339-.672.658a1.688 1.688 0 0 1-.994.287l-2.627.053a1.114 1.114 0 0 1-.627-.214c-.15-.129-.146-.685-.146-.685l-.019-3.55s2.092-.04 2.799.017c.439-.03.876.108 1.221.389.183.171.271.521.458.508.134-.011.188-.305.188-.305l-.021-3.229s-.028-.264-.223-.19c-.193.073-.353.404-.519.599a1.392 1.392 0 0 1-.719.338l-3.205.063s-.063-2.73-.045-3.574c.002-.156.251-.203.251-.203l2.858.004s.829-.021 1.031.165c.278.251.398.72.724.724.21.003.2-.338.2-.338l-.023-1.998s.019-.249-.117-.317a1.996 1.996 0 0 0-.592-.052l-7.284.05zm48.126 13.366h3.458a.19.19 0 0 0 .188-.191.241.241 0 0 0-.007-.053c-.031-.229-.458.013-.757-.694a3.747 3.747 0 0 1-.229-1l-.035-7.206 8.711 9.559s.271.157.363.059a.496.496 0 0 0 .094-.292l-.035-11.969c.012-.375.085-.746.22-1.096.182-.35.575-.307.598-.525.021-.203-.107-.193-.107-.193l-3.674-.003s-.137.021-.143.21c-.013.269.442 0 .684.376.149.27.267.556.348.854l.097 7.744-8.82-9.741a.316.316 0 0 0-.264-.073c-.097.014-.166.219-.166.219l.106 12.349a1.826 1.826 0 0 1-.289.95c-.235.311-.469.324-.455.546-.01.077.04.148.114.17zm24.847-13.659s-.291.096-.101.292c.19.197.537.286.656.797.118.511.173.937.173.937l.033 9.741a3.852 3.852 0 0 1-.246 1.23c-.191.338-.613.23-.576.478.043.235.333.261.333.261l7.748-.045c.079-.347.136-.696.172-1.051.133-.927.291-1.772-.018-1.73-.381.049-.162.34-.672.657-.32.201-.691.302-1.066.287l-2.628.053a1.121 1.121 0 0 1-.626-.212c-.15-.13-.146-.686-.146-.686l-.021-3.551s2.092-.039 2.8.017c.44-.029.877.108 1.222.389.184.171.342.521.531.509.131-.01.188-.306.188-.306l-.021-3.229s-.028-.263-.223-.188c-.194.073-.422.403-.588.599-.204.18-.454.297-.722.338l-3.204.063s-.063-2.841-.046-3.685c.005-.156.253-.203.253-.203l2.858.004s.83-.021 1.032.165c.276.25.472.72.794.725.211.002.199-.339.199-.339l-.024-1.998s.021-.249-.113-.317a2.478 2.478 0 0 0-.665-.052l-7.286.05zM10.023 32.534a7.065 7.065 0 0 0-1.789-1.296 4 4 0 0 0 1.563-1.515c.307-.69.409-1.457.293-2.205-.162-2.104-2.214-3.098-3.521-3.184-1.104-.065-6.384-.074-6.384-.074s-.171-.008-.171.259c0 .13.457.309.687.628.243.431.354.923.319 1.417L1.025 37.3c.002.4-.052.801-.162 1.187-.23.762-.606.604-.801.873a.238.238 0 0 0 .111.386l6 .049a5.553 5.553 0 0 0 3.36-1.131 3.875 3.875 0 0 0 1.447-3.235 4.439 4.439 0 0 0-.957-2.895zm-6.566-6.338s2.737-.458 3.648.585a2.17 2.17 0 0 1-.094 3.036c-.118.112-.248.21-.388.293a6.244 6.244 0 0 1-3.168.42l.002-4.334zm4.455 10.858c-1.105 1.199-3.642.921-4.07.697a.756.756 0 0 1-.391-.539v-4.53s-.009-.144.614-.169a11.215 11.215 0 0 1 2.023.085 2.62 2.62 0 0 1 2.24 1.664 3.106 3.106 0 0 1-.416 2.792zm15.413 2.288c-.073-.135-.385.093-1.015-1.196-.245-.506-5.406-12.258-5.406-12.258s-.189-.263-.366-.275c-.146-.01-.253.221-.253.221L10.758 38.8s-.2.4-.454.48c-.342.107-.478.392-.164.463.313.072 3.229-.028 3.229-.028s.168.066.119-.221c-.056-.351-.404-.108-.376-.767.281-.909.63-1.794 1.045-2.648l4.904-.015c.459.845.787 1.757.968 2.704-.011.569-.428.478-.438.749-.012.254.273.222.273.222l3.337-.016c.001 0 .324-.059.124-.381zm-8.512-5.051 1.841-4.607 1.771 4.621-3.612-.014zm121.932 4.606c-.073-.135-.385.093-1.015-1.196-.247-.505-5.408-12.257-5.408-12.257s-.188-.263-.364-.274c-.146-.011-.254.219-.254.219l-5.527 12.967s-.199.401-.455.481c-.342.106-.477.391-.163.462.313.073 3.231-.028 3.231-.028s.165.067.116-.22c-.055-.352-.403-.109-.374-.768.279-.908.629-1.794 1.042-2.647l4.906-.014a9.41 9.41 0 0 1 .968 2.704c-.013.568-.429.478-.438.748-.013.255.271.223.271.223l3.337-.017c.002-.001.326-.061.127-.383zm-8.513-5.051 1.841-4.607 1.771 4.621-3.612-.014zm-31.053 6.757h8.74a20.098 20.098 0 0 1-.111-.438h-8.736c.023.104.06.254.107.438zm-19.813-.439h-8.735c-.037.146-.074.291-.113.438h8.743l.105-.438zm-18.681.439h7.99c.046-.146.089-.293.132-.438h-7.911l-.211.438zm20.731-.439c-.025.146-.054.292-.08.438h15.755c-.025-.146-.054-.293-.078-.438H79.416zm28.343.439h7.887c-.07-.145-.138-.291-.205-.438h-7.813c.041.144.086.291.131.438zm.738 2.053h8.325a25.555 25.555 0 0 1-.287-.438h-8.213c.058.146.115.294.175.438zm-10.773 0h8.797a54.089 54.089 0 0 1-.139-.438h-8.779c.036.141.077.288.121.438zm-40.231 0h8.438c.061-.146.118-.293.175-.438h-8.325c-.094.147-.189.296-.288.438zm37.925-.437h-8.15c.018.13.04.276.065.438h8.182c-.033-.144-.064-.293-.097-.438zm-16.504.437h8.109c.026-.165.048-.309.066-.438h-8.081c-.03.146-.06.295-.094.438zm-2.079-.437h-8.782a17.18 17.18 0 0 1-.142.438h8.801l.123-.438zm21.502 2.474h8.905c-.057-.144-.106-.293-.161-.438h-8.884c.043.145.093.291.14.438zm-2.427-.437h-8.297c.027.142.058.286.088.438h8.334c-.04-.148-.084-.292-.125-.438zm-40.109.437h9.157c.08-.146.155-.292.23-.438h-8.965c-.136.15-.278.297-.422.438zm22.597 0h8.232c.033-.15.063-.297.096-.438H78.52c-.039.147-.082.291-.122.438zm31.064 0h9.032a13.35 13.35 0 0 1-.419-.438h-8.843c.076.146.15.293.23.438zm-33.226-.437h-8.887c-.054.145-.107.294-.162.438h8.91c.048-.148.095-.294.139-.438zm34.523 2.497h10.457c-.252-.136-.495-.28-.738-.438H110.45c.102.147.203.294.309.438zm-35.211-.438h-9.029c-.064.149-.132.292-.198.438h9.067c.056-.145.108-.292.16-.438zm-22.537.438h10.642c.105-.145.209-.291.311-.438H53.778c-.25.159-.508.301-.767.438zm24.776 0h8.342l.112-.438h-8.318c-.045.146-.09.294-.136.438zm18.724-.438h-8.449l.107.438h8.477l-.135-.438zm2.53.438h9.064l-.2-.438h-9.023c.053.146.105.293.159.438zm-24.3 1.63h-9.197c-.077.149-.152.294-.229.438h9.235c.065-.146.13-.292.191-.438zm24.946 0c.063.146.125.292.19.438h9.126l-.146-.438h-9.17zm-22.607.438h8.459l.132-.438H77.24c-.051.147-.106.292-.16.438zm20.114-.438h-8.591c.038.145.082.291.125.438h8.628c-.054-.146-.109-.29-.162-.438zm.782 2.064h-8.744c.047.146.096.291.146.438h8.772a28.51 28.51 0 0 1-.174-.438zm-21.689.439h8.594c.049-.146.102-.296.146-.438h-8.566c-.059.146-.115.293-.174.438zm-2.499-.439h-9.372c-.09.151-.176.294-.264.438h9.417c.075-.145.147-.29.219-.438zm36.34.439-.146-.438h-9.348l.217.438h9.277zm1.338 2.119-.295-.438h-9.432c.082.146.167.293.247.438h9.48zm-12.599-.438h-8.895l.154.401c.003.012.008.023.014.037h8.924a84.303 84.303 0 0 0-.197-.438zm-23.493.438h8.767c.055-.151.104-.292.156-.438H75.57c-.065.146-.129.292-.196.438zm-2.681-.438h-9.619c-.102.147-.204.3-.301.438h9.682c.076-.142.155-.289.238-.438zm18.084 2.043c.062.148.119.295.179.44h9.084l-.22-.44h-9.043zm-16.375.441h8.955c.059-.146.116-.29.174-.44H74.62c-.072.151-.144.293-.218.44zm-12.847-.441c-.146.181-.264.319-.368.44H71.24c.092-.146.181-.289.271-.44h-9.956zm51.161 0h-9.783l.271.44h9.88l-.368-.44zm-39.417 2.558h9.18c.063-.146.126-.288.189-.438h-9.132c-.079.15-.158.294-.237.438zm27.599-.437h-9.244c.063.149.124.292.188.438h9.201l-.145-.438zM72.113 59.25h9.427c.066-.145.136-.288.204-.438h-9.372c-.089.148-.174.297-.259.438zm29.9-.437h-9.451l.199.438h9.396l-.144-.438zm1.297 2.118h-9.77c.067.15.139.299.207.439h9.743l-.18-.439zm-32.519.439h9.708c.071-.144.146-.287.223-.439h-9.647c-.097.151-.192.299-.284.439zm-1.232 1.91-.067.208h9.863l.248-.438H69.7c-.049.082-.095.157-.141.23zm25.014-.23c.08.16.154.305.224.438h9.989l-.217-.438h-9.996zm12.635-24.767h7.596l-.144-.438h-7.551l.099.438zm-29.181-.436h-8.93l-.09.438h8.938c.028-.147.057-.293.082-.438z"/><path d="M96.484 38.283h8.949c-.031-.146-.063-.295-.09-.438h-8.944c.026.147.056.293.085.438zm-16.753-.436c-.019.146-.041.291-.06.438h15.086l-.063-.438H79.731zm-20.194.436h7.693c.033-.146.067-.293.097-.438h-7.644c-.047.147-.096.294-.146.438zm47.275-2.082h7.42c-.031-.145-.063-.292-.092-.438h-7.393c.02.144.041.29.065.438zm-46.694 0h7.512c.023-.148.045-.293.065-.438h-7.481c-.029.146-.063.294-.096.438zm34.367-.437H79.938c-.012.145-.02.293-.032.438h14.61c-.014-.145-.019-.295-.031-.438zm1.665.437h8.904a12.606 12.606 0 0 1-.066-.438h-8.885c.017.144.028.294.047.438zm-17.827-.437h-8.866l-.066.438h8.885c.017-.145.031-.293.047-.438zm-17.856-1.681h7.421c.013-.15.024-.298.035-.438H60.51c-.013.147-.025.294-.043.438zm33.907-.438H80.049c-.004.147-.01.294-.016.438h14.354l-.013-.438zm1.574.438h8.832c-.016-.15-.026-.298-.041-.438h-8.817c.007.147.017.294.026.438zm-17.446-.438h-8.796c-.014.141-.026.288-.042.438h8.811l.027-.438zm28.056.438h7.334c-.016-.145-.029-.291-.043-.438h-7.326c.008.141.021.288.035.438zm-38.559-2.119.001-.438h-7.41c.001.09.005.181.005.27 0 .058-.003.112-.003.168h7.407zm38.45-.438c-.002.112-.002.262 0 .438h7.324l-.002-.096c0-.113.006-.228.006-.342h-7.328zm-27.901.438c0-.141.008-.279.006-.422l-.001-.017h-8.729l-.001.096c.004.134.008.247.009.342l8.716.001zm17.317-.438c0 .146.009.292.009.438h8.745c0-.085.005-.188.009-.3-.002-.052-.004-.097-.004-.138h-8.759zm-1.5 0H80.053c.004.146.001.292.003.438h14.306c.003-.146 0-.291.003-.438zm-17.098-8.641h-8.743c.039.147.077.293.113.439h8.736c-.026-.112-.062-.255-.106-.439zm38.501 0h-7.983c-.047.146-.09.293-.131.439h7.9c.07-.147.14-.295.214-.439zm-49.087 0h-8.047c.073.146.145.292.214.439h7.964a12.17 12.17 0 0 0-.131-.439zm28.547.439c.019-.11.043-.256.076-.439H79.157c.033.189.059.333.073.439h15.998zm10.713-.439h-8.742c-.046.18-.082.324-.106.439h8.733c.036-.146.074-.292.115-.439zm.605-2.054h-8.799l-.124.438h8.783c.045-.145.093-.292.14-.438zm-29.828 0h-8.799c.048.146.095.293.14.438h8.784l-.125-.438zm19.019 0H87.34c-.025.161-.047.308-.065.438h8.359c.031-.139.065-.288.103-.438zm-16.91.439h8.27c-.02-.13-.04-.273-.066-.438h-8.304c.036.15.07.298.1.438zM117 20.831h-8.467c-.061.146-.118.292-.176.438h8.342l.301-.438zm-51.061 0H57.42c.1.144.196.291.294.438h8.397a15.86 15.86 0 0 0-.172-.438zm12.385-1.599h8.406c-.029-.141-.063-.286-.096-.438h-8.43c.043.149.084.296.12.438zm-13.358-.437h-9.274c.147.142.29.288.433.438h9.071c-.077-.147-.151-.293-.23-.438zm31.293 0h-8.552c-.029.149-.061.297-.086.438h8.518l.12-.438zm22.494 0h-9.24c-.08.146-.156.291-.23.438h9.033c.143-.15.287-.297.437-.438zm-11.478 0h-8.912c-.047.146-.092.293-.14.438h8.89c.054-.146.107-.296.162-.438zm-31.171 0h-8.91c.057.143.107.293.162.438h8.887l-.139-.438zm32.042-2.06h-9.072c-.053.146-.106.292-.157.438h9.032c.064-.148.13-.292.197-.438zm13.562 0h-10.879c-.105.146-.212.291-.313.438h10.371c.269-.158.542-.307.821-.438zm-24.846 0h-8.688c-.035.149-.072.294-.105.438h8.66c.046-.145.089-.289.133-.438zm-19.125.438h8.512c-.036-.144-.075-.289-.114-.438h-8.53l.132.438zm-2.341-.438H66.33c.064.146.133.289.196.438h9.03c-.054-.147-.108-.292-.16-.438zm-11.739 0h-10.85c.27.133.535.281.794.438h10.366c-.1-.148-.202-.294-.31-.438zm13.418-1.63h8.602c-.042-.144-.085-.29-.131-.438h-8.618l.147.438zm-2.518-.439h-9.234l.229.438h9.198l-.193-.438zm22.983 0h-8.808l-.127.438h8.785l.15-.438zm2.183.439h9.144l.146-.438h-9.096c-.066.146-.132.291-.194.438zm-26.147-2.502h-9.417c.088.145.175.288.264.438h9.372a25.535 25.535 0 0 0-.219-.438zm36.56 0H100.9c-.074.145-.146.292-.219.438h9.311l.144-.438zm-33.817.438h8.716c-.047-.143-.1-.293-.146-.438H76.14c.06.147.121.292.179.438zm22.014-.438h-8.951c-.049.147-.099.293-.146.438h8.915c.059-.146.12-.291.182-.438zM75.4 10.922h8.904a71.59 71.59 0 0 1-.156-.438h-8.953c.069.146.138.292.205.438zm36.074-.438h-9.453l-.24.438h9.399l.294-.438zm-39.014 0h-9.682c.098.138.2.29.301.438h9.618l-.237-.438zm26.652.355c.052-.118.103-.238.152-.355h-9.117c-.006.013-.008.024-.014.036-.053.135-.103.269-.152.402h9.092c.014-.027.026-.056.039-.083zm1.084-2.401h-9.233c-.063.146-.12.29-.182.438h9.205c.072-.148.142-.292.21-.438zm-25.803.398.021.04h9.125l-.175-.438h-9.159l.188.398zm-3.103-.398H61.194c.104.12.222.258.368.438h9.986c-.102-.177-.188-.32-.258-.438zm41.799 0h-9.898c-.067.116-.151.256-.258.438h9.789l.367-.438zm-12.041-2.119h-9.199l-.189.438h9.244l.144-.438zm-27.669.438h9.296l-.19-.438h-9.331c.075.146.15.289.225.438zm-1.103-2.082h9.476c-.069-.15-.138-.293-.205-.438h-9.516l.245.438zm29.889-.438h-9.398c-.065.146-.131.288-.197.438h9.451l.144-.438zM70.806 2.144l.25.413h9.673c-.076-.151-.149-.297-.224-.438h-9.712l.013.025zm32.689-.026h-9.742c-.066.142-.138.289-.209.438h9.771l.18-.438zM104.794 0h-9.99c-.07.133-.144.276-.225.438h9.995l.22-.438zM79.609.438A40.57 40.57 0 0 0 79.361 0h-9.862l.061.182.169.256h9.88zm35.281 24.511h-7.666c-.033.147-.066.293-.096.438h7.613c.047-.147.098-.292.149-.438zm-19.994.439c.021-.146.041-.293.064-.438H79.454l.064.438h15.378zm1.51 0h8.95c.029-.145.06-.291.092-.438h-8.967c-.027.145-.048.29-.075.438zm-18.473-.439h-8.919l.09.438h8.902c-.024-.147-.047-.292-.073-.438zm-10.697 0h-7.733c.05.146.102.29.148.438h7.685a29.81 29.81 0 0 0-.1-.438zm.401 2.335h-7.541c.033.146.064.291.094.44h7.51c-.019-.143-.042-.291-.063-.44zm10.611 0h-8.854c.023.148.046.296.066.44h8.841a23.9 23.9 0 0 0-.053-.44zm17.864.441h8.883l.066-.44h-8.895c-.016.146-.038.294-.054.44zm-1.435-.441H79.739c.019.146.036.294.053.44h14.836c.014-.148.032-.293.049-.44zm19.608 0h-7.463c-.022.148-.047.296-.065.44h7.434l.094-.44zm-46.39 2.12h-7.437c.017.146.027.293.042.438h7.43c-.01-.142-.023-.287-.035-.438zm26.581 0H79.942c.01.146.025.291.035.438h14.466c.008-.147.023-.292.033-.438zm-16.018 0h-8.787l.042.438h8.781c-.009-.147-.025-.292-.036-.438zm17.467.437h8.816c.014-.141.026-.286.042-.438h-8.825c-.01.147-.025.292-.033.438zm17.994-.437h-7.359c-.014.15-.025.297-.035.438h7.352c.011-.145.025-.293.042-.438zM41.717 71.501s-.189.063-.063.189c.123.129.351.188.426.521.078.333.113.607.113.607l.021 6.326a2.491 2.491 0 0 1-.159.8c-.125.223-.399.151-.375.312.027.155.217.171.217.171l5.035-.028c.05-.226.086-.454.109-.684.088-.604.188-1.152-.011-1.126-.247.031-.106.222-.438.428-.209.13-.45.194-.695.188l-1.705.034a.736.736 0 0 1-.408-.139c-.098-.087-.093-.443-.093-.443l-.012-2.307s1.359-.027 1.818.009c.285-.02.568.071.793.252.116.114.221.34.345.33.086-.007.122-.196.122-.196l-.014-2.1s-.02-.17-.145-.123c-.125.046-.274.266-.381.392a.937.937 0 0 1-.469.218l-2.082.042s-.041-1.844-.03-2.396c.003-.099.165-.133.165-.133l1.856.007s.538-.016.668.104c.183.165.309.467.519.474.139 0 .131-.221.131-.221l-.018-1.3s.012-.161-.075-.206a1.603 1.603 0 0 0-.432-.032l-4.733.03zm6.847.045 2.387-.004s.101-.023.104.074c.004.148-.165.167-.336.346-.172.169-.202.905-.202.905l.045 4.605c-.005.358.082.71.252 1.022a2.017 2.017 0 0 0 2.844.464 2.01 2.01 0 0 0 .454-.457 2.53 2.53 0 0 0 .248-1.085c.063-.865-.048-4.926-.048-4.926s-.064-.545-.258-.628c-.247-.108-.317-.214-.271-.312a.134.134 0 0 1 .162-.083l2.293.006a.13.13 0 0 1 .086.16c-.047.163-.241.1-.368.371a2.554 2.554 0 0 0-.161.718l-.007 4.78c.017.61-.15 1.212-.479 1.724a3.183 3.183 0 0 1-2.696 1.334 3.466 3.466 0 0 1-2.806-1.088 2.627 2.627 0 0 1-.679-1.667l-.085-4.923a2.675 2.675 0 0 0-.178-.832c-.111-.224-.384-.216-.406-.377a.106.106 0 0 1 .082-.129c.008.003.015.002.023.002zm9.76.519c-.146-.266-.428-.271-.42-.439.005-.132.194-.142.194-.142l3.758.019a2.857 2.857 0 0 1 1.887.997c.343.493.508 1.09.468 1.691a2.451 2.451 0 0 1-.819 1.715c-.299.225-.63.401-.982.525a.32.32 0 0 0 .042.141c.375.556 2.25 3.271 2.25 3.271l.685.563c-.596.051-1.195.05-1.79-.004a1.675 1.675 0 0 1-.72-.647l-2.255-3.458s-.368-.477-.255-.679c.072-.127.692.085 1.348-.135.59-.161.998-.707.992-1.326a1.413 1.413 0 0 0-.931-1.439 3.76 3.76 0 0 0-1.777-.034.257.257 0 0 0-.069.242l.063 6.317c.018.249.103.489.244.693.22.256.302.174.301.321 0 .131-.174.137-.174.137l-2.246.002a.148.148 0 0 1-.124-.165v-.004c.019-.115.285-.117.41-.403.078-.188.116-.39.113-.594l-.043-6.427a1.763 1.763 0 0 0-.15-.738zm48.302-.536s-.189.063-.064.19c.125.129.351.112.426.447.048.199.087.403.115.607l.021 6.328c-.01.274-.063.543-.16.797-.123.226-.398.153-.373.313.026.152.217.169.217.169l4.986-.027c.05-.226.087-.455.11-.685.086-.602.189-1.15-.014-1.125-.244.034-.104.22-.435.429a1.138 1.138 0 0 1-.647.187l-1.707.033a.733.733 0 0 1-.406-.137c-.098-.086-.094-.446-.094-.446l-.014-2.308s1.358-.025 1.819.011c.286-.019.569.072.793.254.117.11.175.339.298.331.086-.008.122-.2.122-.2l-.014-2.097s-.018-.171-.145-.121c-.125.045-.229.262-.338.389a.949.949 0 0 1-.467.219l-2.081.043s-.043-1.775-.03-2.324c.004-.1.166-.133.166-.133l1.854.002s.541-.012.672.106c.181.164.26.466.472.475.137 0 .129-.222.129-.222l-.017-1.298s.013-.162-.076-.208a1.232 1.232 0 0 0-.383-.031l-4.735.032zm18.645.008s-.188.06-.063.189c.121.125.351.113.424.445.049.201.087.404.113.609l.021 6.328a2.47 2.47 0 0 1-.16.798c-.125.222-.397.149-.373.311.028.154.216.169.216.169l4.988-.028s.017-.026.113-.682c.086-.604.188-1.151-.015-1.124-.245.03-.104.221-.438.425a1.114 1.114 0 0 1-.648.189l-1.703.029a.712.712 0 0 1-.405-.137c-.101-.083-.096-.442-.096-.442l-.014-2.308s1.358-.026 1.822.009a1.13 1.13 0 0 1 .791.254c.117.108.176.337.297.333.085-.01.123-.199.123-.199l-.013-2.098s-.021-.173-.146-.125-.228.265-.336.392a.945.945 0 0 1-.47.216l-2.076.043s-.046-1.776-.033-2.322c0-.102.165-.133.165-.133l1.856.004s.541-.017.67.107c.18.159.26.468.471.469.139 0 .129-.22.129-.22l-.016-1.299s.012-.157-.077-.203a1.195 1.195 0 0 0-.386-.036l-4.731.037zM81.36 73.771a.1.1 0 0 1-.076-.024.154.154 0 0 1-.049-.083 2.139 2.139 0 0 0-.608-1.209 1.617 1.617 0 0 0-1.242-.338 1.885 1.885 0 0 0-1.195.333 1.145 1.145 0 0 0-.418.949c-.01.34.156.658.438.844.477.37 1.014.651 1.586.833a4.674 4.674 0 0 1 1.836 1.112c.382.441.584 1.012.565 1.6a2.446 2.446 0 0 1-.928 2.013 3.863 3.863 0 0 1-2.504.744 4.852 4.852 0 0 1-1.158-.119 4.957 4.957 0 0 1-.871-.331.307.307 0 0 1-.125-.104.42.42 0 0 1-.055-.157l-.021-1.292a.795.795 0 0 1 .037-.182c.015-.049.076-.14.105-.143l.108-.083a.117.117 0 0 1 .087.02.15.15 0 0 1 .061.073c.125.434.368.821.703 1.117.334.315.771.495 1.229.503a2.298 2.298 0 0 0 1.433-.393c.355-.224.577-.613.584-1.039a1.16 1.16 0 0 0-.422-.873 4.157 4.157 0 0 0-1.316-.717 5.503 5.503 0 0 1-2.104-1.238 2.41 2.41 0 0 1-.646-1.702 2.225 2.225 0 0 1 .898-1.794 3.398 3.398 0 0 1 2.209-.733 4.76 4.76 0 0 1 1.135.12c.27.066.531.165.779.29a.512.512 0 0 1 .192.153.448.448 0 0 1 .07.226l.021 1.336c-.02.079-.02.144-.071.192a.199.199 0 0 1-.097.062l-.17.034zm-7.621-1.223a4.443 4.443 0 0 0-3.244-1.307 4.195 4.195 0 0 0-3.235 1.454 5.095 5.095 0 0 0-1.322 3.559 4.32 4.32 0 0 0 1.322 3.199 4.443 4.443 0 0 0 3.235 1.306 4.228 4.228 0 0 0 3.244-1.45 5.089 5.089 0 0 0 1.322-3.554 4.333 4.333 0 0 0-1.322-3.207m-3.081 6.893a2.944 2.944 0 0 1-2.672-1.329 4.174 4.174 0 0 1 .303-4.615 2.516 2.516 0 0 1 2.021-.945c1.612-.111 3.007 1.124 3.118 2.759l.003.066c.27 1.979-.694 3.975-2.773 4.064zm17.198-3.963.063 3.858c.018.249.101.487.241.692.221.252.306.171.302.321 0 .133-.172.135-.172.135h-2.248a.14.14 0 0 1-.122-.156l.001-.01c.016-.114.28-.119.41-.406.075-.186.113-.387.112-.588l-.045-3.973"/><path d="m91.458 71.487-2.326-.008s-.188-.012-.182.098c.008.118.279.081.281.326a26.777 26.777 0 0 1-2.007 3.347s-2.256-3.194-2.268-3.386c-.019-.284.207-.183.243-.332.029-.122-.077-.099-.077-.099s-1.952.015-2.154.046c-.201.032-.113.154.106.198a.616.616 0 0 1 .298.212l3.59 5.294c.038.056.099.09.164.095a.5.5 0 0 0 .237-.12s3.354-4.767 3.516-4.986c.408-.56.608-.459.658-.52.132-.136-.079-.165-.079-.165zm11.327 1.115-.012 6.704c.017.251.102.492.246.696.217.254.299.17.299.32 0 .134-.174.136-.174.136h-2.246a.141.141 0 0 1-.123-.155l.002-.012c.016-.115.282-.119.408-.402.076-.188.115-.39.113-.593l-.043-6.758"/><path d="M101.566 72.638h2.306s.54-.014.674.104c.176.164.26.467.467.473.139.002.129-.22.129-.22l-.016-1.3s.014-.16-.074-.204a1.313 1.313 0 0 0-.385-.034l-3.111.034"/><path d="m102.107 72.638-2.008.008s-.538-.014-.67.105c-.181.165-.26.466-.471.472-.137.002-.129-.22-.129-.22l.016-1.298s-.012-.163.074-.209a1.45 1.45 0 0 1 .389-.033l2.782.033m-5.132 2.28a.111.111 0 0 1-.08-.024.146.146 0 0 1-.045-.081 2.143 2.143 0 0 0-.613-1.209 1.593 1.593 0 0 0-1.238-.339 1.873 1.873 0 0 0-1.195.333 1.151 1.151 0 0 0-.42.948c-.009.34.157.66.438.847.477.37 1.014.651 1.586.835a4.58 4.58 0 0 1 1.834 1.11c.383.439.588 1.011.569 1.597a2.454 2.454 0 0 1-.929 2.014 3.872 3.872 0 0 1-2.504.747 4.813 4.813 0 0 1-1.159-.123 4.64 4.64 0 0 1-.874-.332.27.27 0 0 1-.12-.102.401.401 0 0 1-.059-.157l-.018-1.294a.636.636 0 0 1 .033-.179c.017-.052.074-.142.108-.146l.107-.084a.124.124 0 0 1 .084.021.157.157 0 0 1 .063.074c.123.434.367.821.703 1.117.334.317.772.495 1.229.502a2.272 2.272 0 0 0 1.429-.393 1.25 1.25 0 0 0 .588-1.036 1.166 1.166 0 0 0-.424-.878 4.168 4.168 0 0 0-1.317-.715 5.526 5.526 0 0 1-2.104-1.239 2.41 2.41 0 0 1-.648-1.702c.002-.71.337-1.375.901-1.794a3.398 3.398 0 0 1 2.209-.733c.381-.005.762.035 1.134.119.27.07.53.169.778.292a.465.465 0 0 1 .191.154.431.431 0 0 1 .072.224l.023 1.34c-.023.077-.023.14-.074.188a.221.221 0 0 1-.096.062l-.162.036zm13.69-2.969c-.022.036-.043.056-.063.06a.112.112 0 0 1-.074-.022l-2.021-1.06-.146-.1a.91.91 0 0 1-.34-.434.539.539 0 0 1-.029-.19.403.403 0 0 1 .076-.243.706.706 0 0 1 .473-.32.741.741 0 0 1 .553.164l.101.092 1.643 1.64a.208.208 0 0 1 .047.073.159.159 0 0 1-.034.076l-.186.264zm11.185.816s.448-.382.739-.219c.396.221.297.527.297.527l-.045 7.412c.006.214.063.425.17.609.143.199.275.21.271.354-.003.099-.069.11-.069.11h-2.043s-.127 0-.106-.155c.021-.152.271.008.446-.45.072-.208.118-.425.138-.646l.051-4.681-2.526 5.093a.552.552 0 0 1-.514.307c-.475-.003-.497-.864-.497-.864"/><path d="m122.391 71.365.903.01s.172.063.059.188c-.11.126-.319.112-.386.442-.045.199-.08.4-.104.604l-.004.499m-7.074-1.337c-.149-.121-.633-.528-.927-.365-.394.221-.294.527-.294.527l.041 7.412a1.238 1.238 0 0 1-.17.609c-.141.2-.275.21-.268.354.002.099.067.111.067.111h2.045s.125 0 .105-.155c-.019-.153-.271.008-.447-.451a2.671 2.671 0 0 1-.133-.645l-.023-4.642 2.498 5.104a.42.42 0 0 0 .479.246c.438-.008.592-1.067.592-1.067"/><path d="m115.035 71.356-.903.006s-.17.065-.06.191c.115.126.316.112.392.442.067.327.102.604.102.604l.004.501"/></g></svg>
