<svg xmlns="http://www.w3.org/2000/svg" fill="none" viewBox="0 0 256 64"><path fill="#FD3456" d="M53.344 27.4c.021-5.001-.918-9.96-2.767-14.605-.383.156-.659.302-.858.401a2.25 2.25 0 0 0-1.198 2.27c.235 2.033.356 4.077.36 6.124 0 9.353-3.02 18.324-8.504 25.26-5.186 6.556-12.144 10.773-19.71 11.979l.064.038a15.416 15.416 0 0 0 14.41.433c10.678-5.236 18.203-17.564 18.203-31.9Z"/><path fill="#FD3456" d="M55.43 11.841a10.935 10.935 0 0 0-1.983.127 42.047 42.047 0 0 1 2.874 15.431c0 16.075-8.956 30.339-22.03 35.54a31.25 31.25 0 0 0 1.995.07h.099a20.976 20.976 0 0 0 16.231-7.805c5.006-6.196 8.08-14.543 8.08-23.694a38.38 38.38 0 0 0-5.267-19.669Z"/><path fill="#FD3456" d="M67.768 31.51a31.382 31.382 0 0 0-2.4-12.075 13.826 13.826 0 0 0-3.027-4.593 10.226 10.226 0 0 0-2.377-1.783 11.474 11.474 0 0 0-.666-.314 41.924 41.924 0 0 1 4.36 18.753c0 9.3-3.032 18.26-8.42 25.134a31.433 31.433 0 0 0 12.53-25.122Z"/><path fill="#290042" d="M58.881 9.568A31.384 31.384 0 0 0 36.301 0C18.893 0 4.63 14.421 4.805 31.828c.038 4.126.89 8.205 2.507 12.002-.519-.07-1.043-.092-1.566-.07-1.412.066-3.41-.443-4.313-.696-.903-.252-1.71.471-1.343 1.313v.027c3.127 7.16 10.058 11.822 16.675 11.807.44 0 .88-.023 1.317-.069 15.496-1.179 27.793-16.224 27.793-34.549 0-1.155-.05-2.304-.149-3.444a.682.682 0 0 0-1.225-.348c-4.286 5.672-10.636 15.645-18.577 10.448-3.062-1.994-4.692-6.284-3.77-10.651 1.653-7.842 10.793-13.013 14.82-11.39.313.126 1.446.578 1.832 1.611.59 1.577-1.186 2.874-2.093 5.668-.976 3.024-.425 6.227.26 6.369.766.153 2.048-2.653 5.209-5.205 2.296-1.849 4.026-2.37 5.113-4.333 1.049-1.913-.819-3.93-.184-4.11.636-.18 1.229 2.024 3.12 3.119 1.58.919 2.989.344 5.067.26a13.78 13.78 0 0 1 2.296.176s.406.058 1.049.192a.237.237 0 0 0 .237-.387Zm-23.476 24.28a2.231 2.231 0 0 1 1.435-.868 1.844 1.844 0 0 1 1.408.382c.766.708.54 2.078-.118 2.867-.613.727-1.818 1.205-2.656.666a1.913 1.913 0 0 1-.743-1.531 2.258 2.258 0 0 1 .674-1.516ZM84.677 15.585s-6.751 0-6.751 6.747v7.693s0 6.751 6.751 6.751h18.371v7.693H85.412c-6.706 0-6.748 6.751-6.748 6.751h24.759s6.751 0 6.751-6.751v-7.693s0-6.751-6.751-6.751h-18.37v-7.693h17.256c6.702 0 6.751-6.747 6.751-6.747H84.677ZM139.633 15.585h-18.754c-6.751 0-6.751 6.747-6.751 6.747v22.137c0 6.751 6.751 6.751 6.751 6.751h18.754c6.751 0 6.751-6.751 6.751-6.751V22.332c0-6.747-6.751-6.747-6.751-6.747Zm-.383 28.884h-17.988V22.332h17.988v22.137ZM150.697 15.96v34.885h7.127V22.332s0-6.372-7.127-6.372ZM176.206 15.585h-11.635c-6.747 0-6.747 6.747-6.747 6.747h17.988v28.513h7.157V22.332c0-6.747-6.763-6.747-6.763-6.747ZM195.147 15.585h-6.752c0 6.716 6.752 6.747 6.752 6.747h17.257v6.943h-18.371s-6.751 0-6.751 6.751v8.443s0 6.751 6.751 6.751h12.006s6.376 0 6.376-6.751h-18.007v-8.722h18.007v8.722s.184 6.376 7.127 6.376V22.332s0-6.747-6.752-6.747h-17.643ZM224.49 15.96v34.885h7.127V22.332c0-6.376-7.127-6.372-7.127-6.372Z"/><path fill="#290042" d="M238.368 15.585c-6.751 0-6.751 6.747-6.751 6.747h17.632s6.751 0 6.751-6.747h-17.632Z"/></svg>
