<svg width="127" height="26" fill="none" xmlns="http://www.w3.org/2000/svg"><path d="M58.247 21.27c-2.643 0-4.797-1.99-4.797-4.478v-.816h10.231c3.537 0 6.416-2.713 6.416-6.052V6.087c0-3.34-2.88-6.052-6.415-6.052h-8.927a6.828 6.828 0 0 0-1.471.115A6.075 6.075 0 0 0 49.8 2.242a6.235 6.235 0 0 0-1.422 3.845v2.225a.89.89 0 0 0 .221.634.863.863 0 0 0 .598.291h3.468a.858.858 0 0 0 .593-.31.887.887 0 0 0 .201-.645V6.838a2.233 2.233 0 0 1 .71-1.53c.426-.396.989-.604 1.566-.58h6.994a2.169 2.169 0 0 1 1.566.58c.427.395.682.945.71 1.53v2.275a2.228 2.228 0 0 1-.71 1.529c-.426.395-.99.602-1.566.576H45.432v4.718h2.913v.816c0 5.111 4.463 9.237 9.917 9.237H73.04V21.27H58.247Z" fill="#96CD32"/><path d="M29.27 4.743v20.33a.892.892 0 0 1-.222.636.869.869 0 0 1-.601.29h-3.433a.858.858 0 0 1-.602-.29.884.884 0 0 1-.222-.636V.931a.892.892 0 0 1 .222-.636.868.868 0 0 1 .602-.29h10.545c5.458 0 9.897 4.156 9.897 9.267v15.896a.886.886 0 0 1-.287.607.86.86 0 0 1-.625.224h-3.277a.86.86 0 0 1-.625-.224.886.886 0 0 1-.287-.607V9.272c0-2.488-2.153-4.529-4.796-4.529H29.27Zm-22.364 0h13.443a.846.846 0 0 0 .612-.221.871.871 0 0 0 .28-.595V.822a.862.862 0 0 0-.276-.6.836.836 0 0 0-.616-.217H6.813C3.04.005 0 2.857 0 6.39V19.61c0 3.528 3.065 6.39 6.837 6.39h13.537a.846.846 0 0 0 .612-.222.871.871 0 0 0 .28-.594v-3.106a.87.87 0 0 0-.282-.591.846.846 0 0 0-.61-.22H6.906a1.78 1.78 0 0 1-1.26-.493 1.833 1.833 0 0 1-.565-1.244v-3.628h8.039a.846.846 0 0 0 .612-.222.87.87 0 0 0 .28-.594v-3.041a.871.871 0 0 0-.28-.595.846.846 0 0 0-.612-.221H5.08V6.48c.02-.474.223-.92.564-1.245.34-.325.793-.501 1.26-.492ZM126.75 17.041v-.737c-.255-2.886-3.188-5.076-6.278-5.076h-7.847a2.321 2.321 0 0 1-1.613-.764 2.39 2.39 0 0 1-.614-1.695V7.003a2.387 2.387 0 0 1 .752-1.637 2.316 2.316 0 0 1 1.671-.623h10.677a.89.89 0 0 0 .517-.15.912.912 0 0 0 .342-.422.762.762 0 0 0 .049-.259V.836a.888.888 0 0 0-.284-.606.86.86 0 0 0-.624-.225h-11.933c-3.457 0-6.307 2.648-6.307 5.903v3.678c0 3.508 2.609 6.36 5.812 6.36h8.362c.616.03 1.195.305 1.61.767a2.38 2.38 0 0 1 .607 1.696v.588a2.373 2.373 0 0 1-.746 1.635 2.305 2.305 0 0 1-1.667.624h-13.071a.892.892 0 0 0-.517.15.916.916 0 0 0-.341.422.762.762 0 0 0-.049.26v3.075a.884.884 0 0 0 .283.608c.17.157.395.239.624.228h14.327c3.433 0 6.258-2.648 6.258-5.903v-3.055ZM84.977 0H73.86a.868.868 0 0 0-.599.294.894.894 0 0 0-.22.636v15.284a.889.889 0 0 0 .22.634.863.863 0 0 0 .599.291h3.457a.857.857 0 0 0 .602-.29.881.881 0 0 0 .222-.636V4.739H84.4c2.648 0 4.796 2.03 4.796 4.524v8.351c0 2.488-2.148 3.633-4.796 3.633H73.035v4.733h11.364c5.459 0 9.897-3.27 9.897-8.376v-8.39a9.442 9.442 0 0 0-2.79-6.553A9.17 9.17 0 0 0 84.976 0Zm17.353 16.378v-8.69a.891.891 0 0 0-.221-.634.865.865 0 0 0-.598-.291h-3.433a.863.863 0 0 0-.599.29.89.89 0 0 0-.22.635v17.38c-.011.232.069.46.222.632a.868.868 0 0 0 .597.293h3.433a.866.866 0 0 0 .596-.293.89.89 0 0 0 .223-.633v-8.69Zm0-14.403V.926a.886.886 0 0 0-.492-.837.856.856 0 0 0-.327-.084h-3.433a.863.863 0 0 0-.597.29.889.889 0 0 0-.222.631v2.891c-.011.233.069.46.222.634a.868.868 0 0 0 .597.292h3.433a.866.866 0 0 0 .596-.292.89.89 0 0 0 .223-.633V1.975Z" fill="#1423DC"/></svg>