<svg xmlns="http://www.w3.org/2000/svg" xmlns:xlink="http://www.w3.org/1999/xlink" viewBox="0 0 283.46 283.46"><defs><style>.cls-1{fill:#fff;}.cls-2{fill:url(#Nouvelle_nuance_de_dégradé_1);}</style><linearGradient id="Nouvelle_nuance_de_dégradé_1" x1="42.7" y1="233.25" x2="224.76" y2="51.19" gradientTransform="translate(5.31 -4.84) rotate(2.11)" gradientUnits="userSpaceOnUse"><stop offset="0" stop-color="#eb690a"/><stop offset="1" stop-color="#e2001a"/></linearGradient></defs><g id="Calque_2" data-name="Calque 2"><g id="Calque_1-2" data-name="Calque 1"><circle class="cls-1" cx="141.73" cy="141.73" r="141.73" transform="translate(-31.84 241.98) rotate(-75.01)"/><circle class="cls-2" cx="134.22" cy="141.73" r="130.46" transform="translate(-5.13 5.04) rotate(-2.11)"/><path class="cls-1" d="M54.83,146.39a17,17,0,0,1-12.21-5.17,17.85,17.85,0,0,1,0-24.84,17.45,17.45,0,0,1,24.62-.2c3,2.89,4.34,6.95,6,11.55l6.32,17.74h-5l-3.76-9.65C67.6,142.64,61.78,146.39,54.83,146.39Zm0-30.36A12.81,12.81,0,1,0,67.31,128.8,12.63,12.63,0,0,0,54.83,116Z"/><path class="cls-1" d="M110.23,131.71c0,8.94-6,14.68-13.76,14.68s-13.83-5.81-13.83-14.68V112.13h4.75V132c0,5.89,4,9.65,9,9.65s9.08-3.76,9.08-9.65V112.13h4.75Z"/><path class="cls-1" d="M118.67,94.89h4.76v21.49a17.38,17.38,0,0,1,12.41-5.1,16.74,16.74,0,0,1,12.13,5.1,17.82,17.82,0,0,1,0,24.84,16.92,16.92,0,0,1-12.13,5.17c-9.86,0-17.24-7.45-17.24-19.37,0-.7,0-1.48.07-2.26Zm17.17,46.75a12.81,12.81,0,1,0-12.55-12.77A12.62,12.62,0,0,0,135.84,141.64Z"/><path class="cls-1" d="M174.35,146.39a17,17,0,0,1-12.19-5.17,17.82,17.82,0,0,1,0-24.84,17.44,17.44,0,0,1,24.61-.2c3,2.89,4.33,6.95,6,11.55l6.32,17.74h-5l-3.76-9.65C187.13,142.64,181.31,146.39,174.35,146.39Zm0-30.36a12.81,12.81,0,1,0,12.49,12.77A12.62,12.62,0,0,0,174.35,116Z"/><path class="cls-1" d="M213.31,162.57c-6.89,0-11.71-2.2-16-7.59l3.76-3c3.55,4.54,6.81,6.31,11.92,6.31,8.87,0,13.55-5.11,13.55-14.89v-1.07c-3.12,2.7-6.17,4.12-9.37,4.12a15.12,15.12,0,0,1-9.5-3.69c-4.18-3.9-4.47-7.81-4.47-13.06V112.13h4.47v17.52c0,7.95,3.76,12.13,9.71,12.13A9.27,9.27,0,0,0,224.8,138c1.56-2,1.7-4.61,1.7-8.23V112.13h4.89v28.8C231.39,155.34,225.22,162.57,213.31,162.57Z"/><path class="cls-1" d="M62.38,128.88a7.55,7.55,0,1,1-7.55-7.55A7.54,7.54,0,0,1,62.38,128.88Z"/><path class="cls-1" d="M42,184.26a5,5,0,0,1-3.59-1.5,5.18,5.18,0,0,1,0-7.23,5.09,5.09,0,0,1,7.16-.06,8.42,8.42,0,0,1,1.73,3.36L49.14,184h-3l-.58-1.66A4,4,0,0,1,42,184.26Zm.06-7.62a2.47,2.47,0,0,0-2.39,2.53,2.43,2.43,0,0,0,2.39,2.47,2.38,2.38,0,0,0,2.35-2.47A2.41,2.41,0,0,0,42.06,176.64Z"/><path class="cls-1" d="M50.25,178.9c0-3.24,1.53-4.87,4.52-4.87a4.46,4.46,0,0,1,3.22,1.3c.95,1,1.08,2.06,1.08,3.57V184H56.44V178.9c0-1.45-.57-2.14-1.77-2.14s-1.76.68-1.76,2.14V184H50.25Z"/><path class="cls-1" d="M61.93,179.31v-2.4h-1v-2.66h1V172h2.79v2.24h1.76v2.66H64.72V179c0,1.36.59,2.14,1.76,2.29v2.79A4.43,4.43,0,0,1,61.93,179.31Z"/><path class="cls-1" d="M70.31,170.13a1.55,1.55,0,0,1,1.59,1.58,1.58,1.58,0,0,1-1.59,1.62,1.6,1.6,0,0,1-1.61-1.62A1.58,1.58,0,0,1,70.31,170.13ZM69,174h2.58v10H69Z"/><path class="cls-1" d="M78.75,184.26a4.91,4.91,0,0,1-3.55-1.48,5.21,5.21,0,0,1-1.46-3.64,5.16,5.16,0,0,1,1.46-3.61A5,5,0,0,1,78.75,174a4.88,4.88,0,0,1,3.82,1.81l-1.84,1.87a2.23,2.23,0,0,0-2-1.05,2.43,2.43,0,0,0-2.38,2.53,2.39,2.39,0,0,0,2.38,2.42,2.2,2.2,0,0,0,1.78-.86l1.93,1.79A4.92,4.92,0,0,1,78.75,184.26Z"/><path class="cls-1" d="M85.68,170.13a1.55,1.55,0,0,1,1.59,1.58,1.58,1.58,0,0,1-1.59,1.62,1.61,1.61,0,0,1-1.61-1.62A1.58,1.58,0,0,1,85.68,170.13Zm-1.3,3.9H87v10H84.38Z"/><path class="cls-1" d="M89.48,180.42a7.91,7.91,0,0,1,.7-4.16A4.75,4.75,0,0,1,94.47,174,5,5,0,0,1,98,175.53a5.1,5.1,0,0,1,1.44,3.61A5.19,5.19,0,0,1,98,182.78a4.67,4.67,0,0,1-3.37,1.44,3.41,3.41,0,0,1-2.56-1v5.34H89.48v-8.16Zm4.91,1.26a2.53,2.53,0,0,0,.06-5,2.34,2.34,0,0,0-2.35,2.53A2.32,2.32,0,0,0,94.39,181.68Z"/><path class="cls-1" d="M105.82,184.26a4.91,4.91,0,0,1-3.55-1.48,5.21,5.21,0,0,1-1.46-3.64,5.16,5.16,0,0,1,1.46-3.61,5,5,0,0,1,3.55-1.49c2.83,0,5,2.19,5,5.55v.16h-7.29a2.41,2.41,0,0,0,2.4,1.91,2.79,2.79,0,0,0,1.84-.87l1.67,1.89A5.07,5.07,0,0,1,105.82,184.26Zm0-7.9a2,2,0,0,0-2.1,1.57h4.2A2,2,0,0,0,105.82,176.36Z"/><path class="cls-1" d="M112.63,179.55c0-3.54,1.33-5.3,4.48-5.52v2.8c-1.6.06-1.76,1-1.76,3.08V184h-2.72Z"/><path class="cls-1" d="M127.42,169.28H130V184h-2.58Z"/><path class="cls-1" d="M134.2,169.51v5.63h-1.95v-5.63Z"/><path class="cls-1" d="M137.73,170.13a1.55,1.55,0,0,1,1.59,1.58,1.58,1.58,0,0,1-1.59,1.62,1.61,1.61,0,0,1-1.62-1.62A1.58,1.58,0,0,1,137.73,170.13Zm-1.3,3.9H139v10h-2.57Z"/><path class="cls-1" d="M141.73,178.9c0-3.24,1.53-4.87,4.52-4.87a4.47,4.47,0,0,1,3.22,1.3c.95,1,1.07,2.06,1.07,3.57V184h-2.62V178.9c0-1.45-.58-2.14-1.78-2.14s-1.75.68-1.75,2.14V184h-2.66Z"/><path class="cls-1" d="M153.12,178.9c0-3.24,1.52-4.87,4.52-4.87a4.46,4.46,0,0,1,3.22,1.3c.95,1,1.07,2.06,1.07,3.57V184H159.3V178.9c0-1.45-.56-2.14-1.77-2.14s-1.75.68-1.75,2.14V184h-2.66Z"/><path class="cls-1" d="M165.42,175.53A5,5,0,0,1,169,174a5,5,0,0,1,5,5.1,5.15,5.15,0,0,1-1.46,3.64,5,5,0,0,1-3.59,1.48,4.94,4.94,0,0,1-3.57-1.48,5.17,5.17,0,0,1-1.51-3.64A5.12,5.12,0,0,1,165.42,175.53Zm3.54,6.11a2.44,2.44,0,0,0,2.4-2.47,2.39,2.39,0,1,0-4.77,0A2.43,2.43,0,0,0,169,181.64Z"/><path class="cls-1" d="M175.16,174.3H178l1.59,5.25,1.65-5.25h3l-4,9.69h-1.57Z"/><path class="cls-1" d="M190.24,184.26a5,5,0,0,1-3.59-1.5,5.18,5.18,0,0,1,0-7.23,5.09,5.09,0,0,1,7.16-.06,8.3,8.3,0,0,1,1.73,3.36l1.84,5.16h-3l-.58-1.66A4,4,0,0,1,190.24,184.26Zm.07-7.62a2.47,2.47,0,0,0-2.4,2.53,2.43,2.43,0,0,0,2.4,2.47,2.38,2.38,0,0,0,2.35-2.47A2.41,2.41,0,0,0,190.31,176.64Z"/><path class="cls-1" d="M198.78,179.31v-2.4h-1.05v-2.66h1.05V172h2.79v2.24h1.75v2.66h-1.75V179c0,1.36.6,2.14,1.75,2.29v2.79A4.43,4.43,0,0,1,198.78,179.31Z"/><path class="cls-1" d="M207.17,170.13a1.55,1.55,0,0,1,1.58,1.58,1.57,1.57,0,0,1-1.58,1.62,1.61,1.61,0,0,1-1.62-1.62A1.59,1.59,0,0,1,207.17,170.13Zm-1.31,3.9h2.58v10h-2.58Z"/><path class="cls-1" d="M212.07,175.53a5,5,0,0,1,3.57-1.49,5.06,5.06,0,0,1,3.6,1.49,5.23,5.23,0,0,1,0,7.25,5,5,0,0,1-3.6,1.48,5,5,0,0,1-3.57-1.48,5.21,5.21,0,0,1-1.5-3.64A5.15,5.15,0,0,1,212.07,175.53Zm3.56,6.11a2.42,2.42,0,0,0,2.38-2.47,2.38,2.38,0,1,0-4.76,0A2.43,2.43,0,0,0,215.63,181.64Z"/><path class="cls-1" d="M222.68,178.9c0-3.24,1.53-4.87,4.52-4.87a4.47,4.47,0,0,1,3.22,1.3c1,1,1.08,2.06,1.08,3.57V184h-2.63V178.9c0-1.45-.58-2.14-1.78-2.14s-1.75.68-1.75,2.14V184h-2.66Z"/></g></g></svg>